solid elevador
facet normal 0.0 0.0 -1.0
  outer loop
    vertex 4.391497245051478 11.581012004919723 0.0
    vertex 4.391497245051466 8.992821553894506 0.0
    vertex 4.221126376496813 10.28691677940711 0.0
  endloop
endfacet
facet normal 0.0 0.0 -1.0
  outer loop
    vertex 4.391497245051466 8.992821553894506 0.0
    vertex 4.391497245051478 11.581012004919723 0.0
    vertex 4.890999357574614 7.786916779407114 0.0
  endloop
endfacet
facet normal 0.0 0.0 -1.0
  outer loop
    vertex 4.890999357574614 7.786916779407114 0.0
    vertex 4.391497245051478 11.581012004919723 0.0
    vertex 4.890999357574626 12.786916779407115 0.0
  endloop
endfacet
facet normal 0.0 0.0 -1.0
  outer loop
    vertex 4.890999357574614 7.786916779407114 0.0
    vertex 4.890999357574626 12.786916779407115 0.0
    vertex 5.685592470564081 6.751382873474373 0.0
  endloop
endfacet
facet normal 0.0 0.0 -1.0
  outer loop
    vertex 5.685592470564081 6.751382873474373 0.0
    vertex 4.890999357574626 12.786916779407115 0.0
    vertex 5.685592470564081 13.822450685339843 0.0
  endloop
endfacet
facet normal 0.0 0.0 -1.0
  outer loop
    vertex 5.685592470564081 6.751382873474373 0.0
    vertex 5.685592470564081 13.822450685339843 0.0
    vertex 6.72112637649682 14.617043798329316 0.0
  endloop
endfacet
facet normal 0.0 0.0 -1.0
  outer loop
    vertex 5.685592470564081 6.751382873474373 0.0
    vertex 6.72112637649682 14.617043798329316 0.0
    vertex 6.721126376496809 5.956789760484918 0.0
  endloop
endfacet
facet normal 0.0 0.0 -1.0
  outer loop
    vertex 6.721126376496809 5.956789760484918 0.0
    vertex 6.72112637649682 14.617043798329316 0.0
    vertex 7.9270311509842015 5.457287647961771 0.0
  endloop
endfacet
facet normal 0.0 0.0 -1.0
  outer loop
    vertex 7.9270311509842015 5.457287647961771 0.0
    vertex 6.72112637649682 14.617043798329316 0.0
    vertex 7.927031150984213 15.116545910852452 0.0
  endloop
endfacet
facet normal 0.0 0.0 -1.0
  outer loop
    vertex 7.9270311509842015 5.457287647961771 0.0
    vertex 7.927031150984213 15.116545910852452 0.0
    vertex 9.221126376496816 5.286916779407107 0.0
  endloop
endfacet
facet normal 0.0 0.0 -1.0
  outer loop
    vertex 9.221126376496816 5.286916779407107 0.0
    vertex 7.927031150984213 15.116545910852452 0.0
    vertex 9.221126376496816 15.286916779407116 0.0
  endloop
endfacet
facet normal 0.0 0.0 -1.0
  outer loop
    vertex 9.221126376496816 5.286916779407107 0.0
    vertex 9.221126376496816 15.286916779407116 0.0
    vertex 10.515221602009419 15.116545910852452 0.0
  endloop
endfacet
facet normal 0.0 0.0 -1.0
  outer loop
    vertex 9.221126376496816 5.286916779407107 0.0
    vertex 10.515221602009419 15.116545910852452 0.0
    vertex 10.515221602009419 5.457287647961771 0.0
  endloop
endfacet
facet normal 0.0 0.0 -1.0
  outer loop
    vertex 10.515221602009419 5.457287647961771 0.0
    vertex 10.515221602009419 15.116545910852452 0.0
    vertex 11.721126376496828 14.617043798329293 0.0
  endloop
endfacet
facet normal 0.0 0.0 -1.0
  outer loop
    vertex 10.515221602009419 5.457287647961771 0.0
    vertex 11.721126376496828 14.617043798329293 0.0
    vertex 11.721126376496805 5.956789760484918 0.0
  endloop
endfacet
facet normal 0.0 0.0 -1.0
  outer loop
    vertex 11.721126376496805 5.956789760484918 0.0
    vertex 11.721126376496828 14.617043798329293 0.0
    vertex 12.756660282429557 6.751382873474373 0.0
  endloop
endfacet
facet normal 0.0 0.0 -1.0
  outer loop
    vertex 12.756660282429557 6.751382873474373 0.0
    vertex 11.721126376496828 14.617043798329293 0.0
    vertex 12.756660282429557 13.822450685339843 0.0
  endloop
endfacet
facet normal 0.0 0.0 -1.0
  outer loop
    vertex 12.756660282429557 6.751382873474373 0.0
    vertex 12.756660282429557 13.822450685339843 0.0
    vertex 13.551253395419 12.786916779407104 0.0
  endloop
endfacet
facet normal 0.0 0.0 -1.0
  outer loop
    vertex 12.756660282429557 6.751382873474373 0.0
    vertex 13.551253395419 12.786916779407104 0.0
    vertex 13.551253395419 7.786916779407102 0.0
  endloop
endfacet
facet normal 0.0 0.0 -1.0
  outer loop
    vertex 13.551253395419 7.786916779407102 0.0
    vertex 13.551253395419 12.786916779407104 0.0
    vertex 14.050755507942158 11.581012004919712 0.0
  endloop
endfacet
facet normal 0.0 0.0 -1.0
  outer loop
    vertex 13.551253395419 7.786916779407102 0.0
    vertex 14.050755507942158 11.581012004919712 0.0
    vertex 14.050755507942158 8.992821553894506 0.0
  endloop
endfacet
facet normal 0.0 0.0 -1.0
  outer loop
    vertex 14.050755507942158 8.992821553894506 0.0
    vertex 14.050755507942158 11.581012004919712 0.0
    vertex 14.221126376496823 10.28691677940711 0.0
  endloop
endfacet
facet normal 1.0 -1.167777651574658e-15 0.0
  outer loop
    vertex 7.927031150984213 15.116545910852452 3.0
    vertex 7.9270311509842015 5.457287647961771 4.999999999999999
    vertex 7.9270311509842015 5.457287647961771 3.0
  endloop
endfacet
facet normal 1.0 -1.167777651574658e-15 0.0
  outer loop
    vertex 7.9270311509842015 5.457287647961771 4.999999999999999
    vertex 7.927031150984213 15.116545910852452 3.0
    vertex 7.927031150984213 15.116545910852452 4.999999999999999
  endloop
endfacet
facet normal 0.0 0.0 1.0
  outer loop
    vertex 9.221126376496816 5.286916779407107 3.0
    vertex 7.927031150984213 15.116545910852452 3.0
    vertex 7.9270311509842015 5.457287647961771 3.0
  endloop
endfacet
facet normal 0.0 0.0 1.0
  outer loop
    vertex 7.927031150984213 15.116545910852452 3.0
    vertex 9.221126376496816 5.286916779407107 3.0
    vertex 9.221126376496816 15.286916779407116 3.0
  endloop
endfacet
facet normal 0.0 0.0 1.0
  outer loop
    vertex 9.221126376496816 15.286916779407116 3.0
    vertex 9.221126376496816 5.286916779407107 3.0
    vertex 10.515221602009419 5.457287647961771 3.0
  endloop
endfacet
facet normal 0.0 0.0 1.0
  outer loop
    vertex 9.221126376496816 15.286916779407116 3.0
    vertex 10.515221602009419 5.457287647961771 3.0
    vertex 10.515221602009419 15.116545910852452 3.0
  endloop
endfacet
facet normal 0.0 0.0 1.0
  outer loop
    vertex 10.515221602009419 15.116545910852452 3.0
    vertex 10.515221602009419 5.457287647961771 3.0
    vertex 11.721126376496805 5.956789760484918 3.0
  endloop
endfacet
facet normal 0.0 0.0 1.0
  outer loop
    vertex 10.515221602009419 15.116545910852452 3.0
    vertex 11.721126376496805 5.956789760484918 3.0
    vertex 11.721126376496828 14.617043798329293 3.0
  endloop
endfacet
facet normal 0.0 0.0 1.0
  outer loop
    vertex 11.721126376496828 14.617043798329293 3.0
    vertex 11.721126376496805 5.956789760484918 3.0
    vertex 12.756660282429557 6.751382873474373 3.0
  endloop
endfacet
facet normal 0.0 0.0 1.0
  outer loop
    vertex 11.721126376496828 14.617043798329293 3.0
    vertex 12.756660282429557 6.751382873474373 3.0
    vertex 12.756660282429557 13.822450685339843 3.0
  endloop
endfacet
facet normal 0.0 0.0 1.0
  outer loop
    vertex 12.756660282429557 13.822450685339843 3.0
    vertex 12.756660282429557 6.751382873474373 3.0
    vertex 13.551253395419 7.786916779407102 3.0
  endloop
endfacet
facet normal 0.0 0.0 1.0
  outer loop
    vertex 12.756660282429557 13.822450685339843 3.0
    vertex 13.551253395419 7.786916779407102 3.0
    vertex 13.551253395419 12.786916779407104 3.0
  endloop
endfacet
facet normal 0.0 0.0 1.0
  outer loop
    vertex 13.551253395419 12.786916779407104 3.0
    vertex 13.551253395419 7.786916779407102 3.0
    vertex 14.050755507942158 8.992821553894506 3.0
  endloop
endfacet
facet normal 0.0 0.0 1.0
  outer loop
    vertex 13.551253395419 12.786916779407104 3.0
    vertex 14.050755507942158 8.992821553894506 3.0
    vertex 14.050755507942158 11.581012004919712 3.0
  endloop
endfacet
facet normal 0.0 0.0 1.0
  outer loop
    vertex 14.050755507942158 11.581012004919712 3.0
    vertex 14.050755507942158 8.992821553894506 3.0
    vertex 14.221126376496823 10.28691677940711 3.0
  endloop
endfacet
facet normal 0.0 0.0 1.0
  outer loop
    vertex 4.391497245051466 8.992821553894506 4.999999999999999
    vertex 4.391497245051478 11.581012004919723 4.999999999999999
    vertex 4.221126376496813 10.28691677940711 4.999999999999999
  endloop
endfacet
facet normal 0.0 0.0 1.0
  outer loop
    vertex 4.391497245051478 11.581012004919723 4.999999999999999
    vertex 4.391497245051466 8.992821553894506 4.999999999999999
    vertex 4.890999357574614 7.786916779407114 4.999999999999999
  endloop
endfacet
facet normal 0.0 0.0 1.0
  outer loop
    vertex 4.391497245051478 11.581012004919723 4.999999999999999
    vertex 4.890999357574614 7.786916779407114 4.999999999999999
    vertex 4.890999357574626 12.786916779407115 4.999999999999999
  endloop
endfacet
facet normal 0.0 0.0 1.0
  outer loop
    vertex 4.890999357574626 12.786916779407115 4.999999999999999
    vertex 4.890999357574614 7.786916779407114 4.999999999999999
    vertex 5.685592470564081 6.751382873474373 4.999999999999999
  endloop
endfacet
facet normal 0.0 0.0 1.0
  outer loop
    vertex 4.890999357574626 12.786916779407115 4.999999999999999
    vertex 5.685592470564081 6.751382873474373 4.999999999999999
    vertex 5.685592470564081 13.822450685339843 4.999999999999999
  endloop
endfacet
facet normal 0.0 0.0 1.0
  outer loop
    vertex 5.685592470564081 13.822450685339843 4.999999999999999
    vertex 5.685592470564081 6.751382873474373 4.999999999999999
    vertex 6.721126376496809 5.956789760484918 4.999999999999999
  endloop
endfacet
facet normal 0.0 0.0 1.0
  outer loop
    vertex 5.685592470564081 13.822450685339843 4.999999999999999
    vertex 6.721126376496809 5.956789760484918 4.999999999999999
    vertex 6.72112637649682 14.617043798329316 4.999999999999999
  endloop
endfacet
facet normal 0.0 0.0 1.0
  outer loop
    vertex 6.72112637649682 14.617043798329316 4.999999999999999
    vertex 6.721126376496809 5.956789760484918 4.999999999999999
    vertex 7.9270311509842015 5.457287647961771 4.999999999999999
  endloop
endfacet
facet normal 0.0 0.0 1.0
  outer loop
    vertex 6.72112637649682 14.617043798329316 4.999999999999999
    vertex 7.9270311509842015 5.457287647961771 4.999999999999999
    vertex 7.927031150984213 15.116545910852452 4.999999999999999
  endloop
endfacet
facet normal -0.9238795325112865 -0.3826834323650902 0.0
  outer loop
    vertex 4.391497245051466 8.992821553894506 4.999999999999999
    vertex 4.890999357574614 7.786916779407114 0.0
    vertex 4.890999357574614 7.786916779407114 4.999999999999999
  endloop
endfacet
facet normal -0.9238795325112865 -0.3826834323650902 0.0
  outer loop
    vertex 4.890999357574614 7.786916779407114 0.0
    vertex 4.391497245051466 8.992821553894506 4.999999999999999
    vertex 4.391497245051466 8.992821553894506 0.0
  endloop
endfacet
facet normal -0.7933533402912317 -0.608761429008725 0.0
  outer loop
    vertex 4.890999357574614 7.786916779407114 4.999999999999999
    vertex 5.685592470564081 6.751382873474373 0.0
    vertex 5.685592470564081 6.751382873474373 4.999999999999999
  endloop
endfacet
facet normal -0.7933533402912317 -0.608761429008725 0.0
  outer loop
    vertex 5.685592470564081 6.751382873474373 0.0
    vertex 4.890999357574614 7.786916779407114 4.999999999999999
    vertex 4.890999357574614 7.786916779407114 0.0
  endloop
endfacet
facet normal -0.6087614290087238 -0.7933533402912327 0.0
  outer loop
    vertex 6.721126376496809 5.956789760484918 4.999999999999999
    vertex 5.685592470564081 6.751382873474373 0.0
    vertex 6.721126376496809 5.956789760484918 0.0
  endloop
endfacet
facet normal -0.6087614290087238 -0.7933533402912327 0.0
  outer loop
    vertex 5.685592470564081 6.751382873474373 0.0
    vertex 6.721126376496809 5.956789760484918 4.999999999999999
    vertex 5.685592470564081 6.751382873474373 4.999999999999999
  endloop
endfacet
facet normal -0.3826834323650902 -0.9238795325112865 0.0
  outer loop
    vertex 7.9270311509842015 5.457287647961771 3.0
    vertex 6.721126376496809 5.956789760484918 0.0
    vertex 7.9270311509842015 5.457287647961771 0.0
  endloop
endfacet
facet normal -0.3826834323650902 -0.9238795325112865 0.0
  outer loop
    vertex 6.721126376496809 5.956789760484918 0.0
    vertex 7.9270311509842015 5.457287647961771 3.0
    vertex 6.721126376496809 5.956789760484918 4.999999999999999
  endloop
endfacet
facet normal -0.3826834323650902 -0.9238795325112865 0.0
  outer loop
    vertex 6.721126376496809 5.956789760484918 4.999999999999999
    vertex 7.9270311509842015 5.457287647961771 3.0
    vertex 7.9270311509842015 5.457287647961771 4.999999999999999
  endloop
endfacet
facet normal -0.130526192220055 -0.99144486137381 0.0
  outer loop
    vertex 9.221126376496816 5.286916779407107 3.0
    vertex 7.9270311509842015 5.457287647961771 0.0
    vertex 9.221126376496816 5.286916779407107 0.0
  endloop
endfacet
facet normal -0.130526192220055 -0.99144486137381 0.0
  outer loop
    vertex 7.9270311509842015 5.457287647961771 0.0
    vertex 9.221126376496816 5.286916779407107 3.0
    vertex 7.9270311509842015 5.457287647961771 3.0
  endloop
endfacet
facet normal 0.13052619222005613 -0.9914448613738098 0.0
  outer loop
    vertex 10.515221602009419 5.457287647961771 3.0
    vertex 9.221126376496816 5.286916779407107 0.0
    vertex 10.515221602009419 5.457287647961771 0.0
  endloop
endfacet
facet normal 0.13052619222005613 -0.9914448613738098 0.0
  outer loop
    vertex 9.221126376496816 5.286916779407107 0.0
    vertex 10.515221602009419 5.457287647961771 3.0
    vertex 9.221126376496816 5.286916779407107 3.0
  endloop
endfacet
facet normal 0.3826834323650917 -0.923879532511286 0.0
  outer loop
    vertex 11.721126376496805 5.956789760484918 3.0
    vertex 10.515221602009419 5.457287647961771 0.0
    vertex 11.721126376496805 5.956789760484918 0.0
  endloop
endfacet
facet normal 0.3826834323650917 -0.923879532511286 0.0
  outer loop
    vertex 10.515221602009419 5.457287647961771 0.0
    vertex 11.721126376496805 5.956789760484918 3.0
    vertex 10.515221602009419 5.457287647961771 3.0
  endloop
endfacet
facet normal 0.6087614290087153 -0.7933533402912392 0.0
  outer loop
    vertex 12.756660282429557 6.751382873474373 3.0
    vertex 11.721126376496805 5.956789760484918 0.0
    vertex 12.756660282429557 6.751382873474373 0.0
  endloop
endfacet
facet normal 0.6087614290087153 -0.7933533402912392 0.0
  outer loop
    vertex 11.721126376496805 5.956789760484918 0.0
    vertex 12.756660282429557 6.751382873474373 3.0
    vertex 11.721126376496805 5.956789760484918 3.0
  endloop
endfacet
facet normal 0.7933533402912369 -0.6087614290087184 0.0
  outer loop
    vertex 13.551253395419 7.786916779407102 0.0
    vertex 12.756660282429557 6.751382873474373 3.0
    vertex 12.756660282429557 6.751382873474373 0.0
  endloop
endfacet
facet normal 0.7933533402912369 -0.6087614290087184 0.0
  outer loop
    vertex 12.756660282429557 6.751382873474373 3.0
    vertex 13.551253395419 7.786916779407102 0.0
    vertex 13.551253395419 7.786916779407102 3.0
  endloop
endfacet
facet normal 0.9238795325112849 -0.3826834323650946 0.0
  outer loop
    vertex 14.050755507942158 8.992821553894506 0.0
    vertex 13.551253395419 7.786916779407102 3.0
    vertex 13.551253395419 7.786916779407102 0.0
  endloop
endfacet
facet normal 0.9238795325112849 -0.3826834323650946 0.0
  outer loop
    vertex 13.551253395419 7.786916779407102 3.0
    vertex 14.050755507942158 8.992821553894506 0.0
    vertex 14.050755507942158 8.992821553894506 3.0
  endloop
endfacet
facet normal 0.9914448613738098 -0.13052619222005613 0.0
  outer loop
    vertex 14.221126376496823 10.28691677940711 0.0
    vertex 14.050755507942158 8.992821553894506 3.0
    vertex 14.050755507942158 8.992821553894506 0.0
  endloop
endfacet
facet normal 0.9914448613738098 -0.13052619222005613 0.0
  outer loop
    vertex 14.050755507942158 8.992821553894506 3.0
    vertex 14.221126376496823 10.28691677940711 0.0
    vertex 14.221126376496823 10.28691677940711 3.0
  endloop
endfacet
facet normal 0.9914448613738098 0.13052619222005613 0.0
  outer loop
    vertex 14.050755507942158 11.581012004919712 0.0
    vertex 14.221126376496823 10.28691677940711 3.0
    vertex 14.221126376496823 10.28691677940711 0.0
  endloop
endfacet
facet normal 0.9914448613738098 0.13052619222005613 0.0
  outer loop
    vertex 14.221126376496823 10.28691677940711 3.0
    vertex 14.050755507942158 11.581012004919712 0.0
    vertex 14.050755507942158 11.581012004919712 3.0
  endloop
endfacet
facet normal 0.9238795325112835 0.3826834323650976 0.0
  outer loop
    vertex 13.551253395419 12.786916779407104 0.0
    vertex 14.050755507942158 11.581012004919712 3.0
    vertex 14.050755507942158 11.581012004919712 0.0
  endloop
endfacet
facet normal 0.9238795325112835 0.3826834323650976 0.0
  outer loop
    vertex 14.050755507942158 11.581012004919712 3.0
    vertex 13.551253395419 12.786916779407104 0.0
    vertex 13.551253395419 12.786916779407104 3.0
  endloop
endfacet
facet normal 0.7933533402912402 0.6087614290087142 0.0
  outer loop
    vertex 12.756660282429557 13.822450685339843 0.0
    vertex 13.551253395419 12.786916779407104 3.0
    vertex 13.551253395419 12.786916779407104 0.0
  endloop
endfacet
facet normal 0.7933533402912402 0.6087614290087142 0.0
  outer loop
    vertex 13.551253395419 12.786916779407104 3.0
    vertex 12.756660282429557 13.822450685339843 0.0
    vertex 12.756660282429557 13.822450685339843 3.0
  endloop
endfacet
facet normal 0.6087614290087211 0.7933533402912348 0.0
  outer loop
    vertex 11.721126376496828 14.617043798329293 3.0
    vertex 12.756660282429557 13.822450685339843 0.0
    vertex 11.721126376496828 14.617043798329293 0.0
  endloop
endfacet
facet normal 0.6087614290087211 0.7933533402912348 0.0
  outer loop
    vertex 12.756660282429557 13.822450685339843 0.0
    vertex 11.721126376496828 14.617043798329293 3.0
    vertex 12.756660282429557 13.822450685339843 3.0
  endloop
endfacet
facet normal 0.38268343236509295 0.9238795325112854 0.0
  outer loop
    vertex 10.515221602009419 15.116545910852452 3.0
    vertex 11.721126376496828 14.617043798329293 0.0
    vertex 10.515221602009419 15.116545910852452 0.0
  endloop
endfacet
facet normal 0.38268343236509295 0.9238795325112854 0.0
  outer loop
    vertex 11.721126376496828 14.617043798329293 0.0
    vertex 10.515221602009419 15.116545910852452 3.0
    vertex 11.721126376496828 14.617043798329293 3.0
  endloop
endfacet
facet normal 0.13052619222005613 0.9914448613738098 0.0
  outer loop
    vertex 9.221126376496816 15.286916779407116 3.0
    vertex 10.515221602009419 15.116545910852452 0.0
    vertex 9.221126376496816 15.286916779407116 0.0
  endloop
endfacet
facet normal 0.13052619222005613 0.9914448613738098 0.0
  outer loop
    vertex 10.515221602009419 15.116545910852452 0.0
    vertex 9.221126376496816 15.286916779407116 3.0
    vertex 10.515221602009419 15.116545910852452 3.0
  endloop
endfacet
facet normal -0.13052619222005613 0.9914448613738098 0.0
  outer loop
    vertex 7.927031150984213 15.116545910852452 3.0
    vertex 9.221126376496816 15.286916779407116 0.0
    vertex 7.927031150984213 15.116545910852452 0.0
  endloop
endfacet
facet normal -0.13052619222005613 0.9914448613738098 0.0
  outer loop
    vertex 9.221126376496816 15.286916779407116 0.0
    vertex 7.927031150984213 15.116545910852452 3.0
    vertex 9.221126376496816 15.286916779407116 3.0
  endloop
endfacet
facet normal -0.38268343236508295 0.9238795325112897 0.0
  outer loop
    vertex 6.72112637649682 14.617043798329316 4.999999999999999
    vertex 7.927031150984213 15.116545910852452 0.0
    vertex 6.72112637649682 14.617043798329316 0.0
  endloop
endfacet
facet normal -0.38268343236508295 0.9238795325112897 0.0
  outer loop
    vertex 7.927031150984213 15.116545910852452 0.0
    vertex 6.72112637649682 14.617043798329316 4.999999999999999
    vertex 7.927031150984213 15.116545910852452 3.0
  endloop
endfacet
facet normal -0.38268343236508295 0.9238795325112897 0.0
  outer loop
    vertex 7.927031150984213 15.116545910852452 3.0
    vertex 6.72112637649682 14.617043798329316 4.999999999999999
    vertex 7.927031150984213 15.116545910852452 4.999999999999999
  endloop
endfacet
facet normal -0.9914448613738109 -0.13052619222004763 0.0
  outer loop
    vertex 4.221126376496813 10.28691677940711 4.999999999999999
    vertex 4.391497245051466 8.992821553894506 0.0
    vertex 4.391497245051466 8.992821553894506 4.999999999999999
  endloop
endfacet
facet normal -0.9914448613738109 -0.13052619222004763 0.0
  outer loop
    vertex 4.391497245051466 8.992821553894506 0.0
    vertex 4.221126376496813 10.28691677940711 4.999999999999999
    vertex 4.221126376496813 10.28691677940711 0.0
  endloop
endfacet
facet normal -0.99144486137381 0.130526192220055 0.0
  outer loop
    vertex 4.391497245051478 11.581012004919723 4.999999999999999
    vertex 4.221126376496813 10.28691677940711 0.0
    vertex 4.221126376496813 10.28691677940711 4.999999999999999
  endloop
endfacet
facet normal -0.99144486137381 0.130526192220055 0.0
  outer loop
    vertex 4.221126376496813 10.28691677940711 0.0
    vertex 4.391497245051478 11.581012004919723 4.999999999999999
    vertex 4.391497245051478 11.581012004919723 0.0
  endloop
endfacet
facet normal -0.9238795325112865 0.3826834323650902 0.0
  outer loop
    vertex 4.890999357574626 12.786916779407115 4.999999999999999
    vertex 4.391497245051478 11.581012004919723 0.0
    vertex 4.391497245051478 11.581012004919723 4.999999999999999
  endloop
endfacet
facet normal -0.9238795325112865 0.3826834323650902 0.0
  outer loop
    vertex 4.391497245051478 11.581012004919723 0.0
    vertex 4.890999357574626 12.786916779407115 4.999999999999999
    vertex 4.890999357574626 12.786916779407115 0.0
  endloop
endfacet
facet normal -0.7933533402912327 0.6087614290087238 0.0
  outer loop
    vertex 5.685592470564081 13.822450685339843 4.999999999999999
    vertex 4.890999357574626 12.786916779407115 0.0
    vertex 4.890999357574626 12.786916779407115 4.999999999999999
  endloop
endfacet
facet normal -0.7933533402912327 0.6087614290087238 0.0
  outer loop
    vertex 4.890999357574626 12.786916779407115 0.0
    vertex 5.685592470564081 13.822450685339843 4.999999999999999
    vertex 5.685592470564081 13.822450685339843 0.0
  endloop
endfacet
facet normal -0.6087614290087278 0.7933533402912296 0.0
  outer loop
    vertex 5.685592470564081 13.822450685339843 4.999999999999999
    vertex 6.72112637649682 14.617043798329316 0.0
    vertex 5.685592470564081 13.822450685339843 0.0
  endloop
endfacet
facet normal -0.6087614290087278 0.7933533402912296 0.0
  outer loop
    vertex 6.72112637649682 14.617043798329316 0.0
    vertex 5.685592470564081 13.822450685339843 4.999999999999999
    vertex 6.72112637649682 14.617043798329316 4.999999999999999
  endloop
endfacet
endsolid elevador
